<svg xmlns="http://www.w3.org/2000/svg" viewBox="0 0 720 720">
  <defs>
    <style>
    </style>
  </defs>
  <title>Instagram Icon</title>
  <g>
    <path class="svg_base" d="M360.23,677.91c-85.76,0-97-.36-130.86-1.91-30.64-1.4-54.41-5.95-77.06-14.75a162.38,162.38,0,0,1-92.87-92.87c-8.81-22.66-13.36-46.43-14.76-77.07-1.55-33.85-1.91-45.1-1.91-130.86s.36-97,1.91-130.85c1.4-30.64,5.95-54.41,14.76-77.07A155.42,155.42,0,0,1,96.06,96.29a155.46,155.46,0,0,1,56.25-36.63c22.65-8.81,46.42-13.36,77.06-14.76,33.77-1.55,45-1.91,130.86-1.91s97.09.36,130.85,1.91c30.64,1.4,54.41,6,77.07,14.76a155.46,155.46,0,0,1,56.24,36.63A155.45,155.45,0,0,1,661,152.54c8.81,22.67,13.36,46.44,14.76,77.07,1.55,33.86,1.91,45.12,1.91,130.85s-.36,97-1.91,130.86c-1.4,30.62-5.95,54.39-14.76,77.07a162.41,162.41,0,0,1-92.87,92.87c-22.66,8.81-46.43,13.36-77.07,14.75C457.23,677.55,446,677.91,360.23,677.91Zm0-577.56c-84.8,0-94.83.33-128.24,1.85-30.93,1.41-47.72,6.58-58.91,10.92a105,105,0,0,0-60.18,60.18c-4.34,11.19-9.51,28-10.92,58.91-1.52,33.41-1.85,43.44-1.85,128.24s.33,94.83,1.85,128.24c1.41,30.91,6.58,47.72,10.92,58.91a105,105,0,0,0,60.18,60.18c11.17,4.34,28,9.51,58.91,10.92,33.4,1.52,43.43,1.85,128.24,1.85s94.83-.32,128.24-1.85c30.94-1.41,47.73-6.58,58.9-10.92a105,105,0,0,0,60.18-60.18c4.34-11.18,9.51-28,10.92-58.91,1.52-33.5,1.85-43.55,1.85-128.24s-.32-94.73-1.85-128.24c-1.42-30.93-6.58-47.72-10.92-58.91a105,105,0,0,0-60.18-60.18c-11.18-4.34-28-9.51-58.9-10.92C455.05,100.68,445,100.36,360.23,100.36Z"/>
    <path class="svg_base" d="M360.22,199.11A161.34,161.34,0,1,0,521.57,360.46,161.34,161.34,0,0,0,360.22,199.11m0,266.08A104.73,104.73,0,1,1,465,360.46,104.73,104.73,0,0,1,360.22,465.19"/>
    <path class="svg_base" d="M567.72,191A38.08,38.08,0,1,1,529.64,153,38.09,38.09,0,0,1,567.72,191"/>
  </g>
</svg>
