<svg xmlns="http://www.w3.org/2000/svg" viewBox="0 0 720 720">
  <defs>
    <style>
    </style>
  </defs>
  <title>Twitter Icon</title>
  <path class="svg_base" d="M234.4,635.43a394.34,394.34,0,0,1-213.21-62.5,332.28,332.28,0,0,0,33.38,1.79A280.86,280.86,0,0,0,227.06,515.2,138.68,138.68,0,0,1,97.13,418.72a153.6,153.6,0,0,0,26.41,2.37A138.65,138.65,0,0,0,160,416.22c-65.15-12.9-113.13-72.32-111.61-138a141.39,141.39,0,0,0,63.11,17.31C50.34,254.88,31.42,173.27,68.35,109.89A396.58,396.58,0,0,0,355.06,255.14,139.12,139.12,0,0,1,490.51,84.4a139.85,139.85,0,0,1,101.59,43.94,279.3,279.3,0,0,0,88.17-33.78,138.07,138.07,0,0,1-61,77.11A284.43,284.43,0,0,0,699,149.59a276.09,276.09,0,0,1-69.29,72.16c4.86,107-37,217.7-111.83,296C466.55,571.43,375.7,635.43,234.4,635.43Z"/>
</svg>
