<svg xmlns="http://www.w3.org/2000/svg" viewBox="0 0 720 720">
  <defs>
    <style>
    </style>
  </defs>
  <title>YouTube Icon</title>
  <path class="svg_base" d="M303.45,576.53c-127.94-2.36-171.63-4.47-198.49-10-18.17-3.68-34-11.84-45.54-23.68-8.95-9-16.07-22.63-21.59-41.6-4.74-15.8-6.58-29-9.21-61.07-4-72.49-5-131.75,0-198,4.11-36.57,6.11-80,33.43-105.3a89.62,89.62,0,0,1,44.76-22.63c26.32-5,138.47-8.95,254.56-8.95,115.83,0,228.23,4,254.57,8.95,21.05,4,40.79,15.79,52.38,31.06,24.93,39.21,25.36,88,27.89,126.1,1,18.17,1,121.35,0,139.53-3.94,60.27-7.1,81.6-16.05,103.71-5.53,14-10.26,21.32-18.43,29.49a88.29,88.29,0,0,1-46.86,24c-110.71,8.33-204.72,10.13-311.42,8.43ZM473,334.35c-61.59-32.92-120.57-63.44-180.85-95v189c63.44-34.49,130.31-66.08,181.12-94.25l-.26.26Z"/>
</svg>
